<svg xmlns="http://www.w3.org/2000/svg" fill="none" viewBox="0 0 348 348"><path stroke="#000" stroke-width="2" d="M5.079 5.776h336.913v337.67H5.08z"/><path stroke="#000" stroke-width="2" d="M282.734 40.554c0-8.376 6.966-15.165 15.56-15.165 4.126 0 8.084 1.597 11.001 4.441 2.918 2.844 4.558 6.702 4.558 10.724 0 8.376-6.966 15.165-15.56 15.165-8.593 0-15.559-6.79-15.559-15.165z"/><path d="M19.074 19.922h247.542v200.916H19.074z" style="fill:#000;fill-opacity:1;fill-rule:evenodd"/><path d="M22.465 22.889h241.184v194.558H22.465z" style="fill:#fff;fill-opacity:1;fill-rule:evenodd"/><path d="M64.853 234.826h214.48v88.166H64.853z" style="fill:#1a1a1a;fill-opacity:1;fill-rule:evenodd"/><path d="M67.828 237.585h208.546v81.808H67.828z" style="fill:#fff;fill-opacity:1;fill-rule:evenodd;stroke-width:.949849"/><path d="m91.012 288.875-19.584-8.706v-2.104l19.584-8.706v3.055l-15.444 6.703 15.444 6.704zm29.291-11.302q0 3.445-1.51 6.245-1.493 2.8-3.988 4.345-1.731 1.069-3.87 1.544-2.12.475-5.6.475h-6.38v-25.27h6.312q3.7 0 5.872.544 2.19.526 3.7 1.46 2.58 1.611 4.022 4.293 1.442 2.681 1.442 6.364zm-3.513-.051q0-2.97-1.035-5.006-1.035-2.037-3.088-3.208-1.494-.848-3.174-1.17-1.68-.34-4.022-.34h-3.157v19.5h3.157q2.427 0 4.226-.357 1.816-.357 3.326-1.324 1.884-1.205 2.817-3.173.95-1.97.95-4.922zm17.854 12.66h-9.98v-2.58h3.31v-20.11h-3.31v-2.58h9.98v2.58h-3.31v20.11h3.31zm24.081-7.212q0 1.476-.696 2.919-.678 1.442-1.917 2.443-1.358 1.086-3.174 1.697-1.799.611-4.344.611-2.733 0-4.922-.509-2.172-.509-4.43-1.51v-4.209h.238q1.918 1.595 4.43 2.46 2.511.866 4.718.866 3.122 0 4.853-1.17 1.748-1.172 1.748-3.123 0-1.68-.831-2.478-.815-.798-2.495-1.239-1.273-.34-2.766-.56-1.477-.22-3.14-.56-3.36-.713-4.99-2.427-1.612-1.73-1.612-4.497 0-3.173 2.682-5.193 2.681-2.036 6.805-2.036 2.665 0 4.888.509t3.937 1.255v3.972h-.238q-1.442-1.222-3.801-2.02-2.342-.814-4.803-.814-2.698 0-4.344 1.12-1.63 1.12-1.63 2.885 0 1.578.815 2.477.815.9 2.868 1.375 1.086.238 3.089.577 2.002.34 3.394.696 2.817.746 4.243 2.257 1.425 1.51 1.425 4.226zm21.926-10.42q0 1.68-.594 3.122-.577 1.426-1.629 2.478-1.307 1.307-3.088 1.969-1.782.644-4.498.644h-3.36v9.42h-3.36v-25.27h6.856q2.274 0 3.852.39 1.579.373 2.8 1.188 1.443.967 2.224 2.41.797 1.442.797 3.649zm-3.496.084q0-1.306-.458-2.274-.458-.967-1.391-1.578-.815-.526-1.867-.747-1.035-.237-2.63-.237h-3.327v10.097h2.834q2.037 0 3.31-.356 1.272-.373 2.07-1.171.798-.815 1.12-1.714.34-.9.34-2.02zm23.912 17.548h-15.986v-25.27h3.36v22.283h12.626zm23.284 0h-3.58l-2.478-7.043h-10.93l-2.477 7.043h-3.411l9.198-25.27h4.48zm-7.094-9.928-4.43-12.405-4.445 12.405zm27.459-15.341-8.893 14.187v11.082h-3.36v-10.725l-8.927-14.544h3.717l6.907 11.302 6.975-11.302zm24.234 15.256-19.584 8.706v-3.054l15.443-6.704-15.443-6.703v-3.055l19.584 8.706z" aria-label="&lt;DISPLAY&gt;" style="font-size:38.6943px;fill:#1a1a1a;fill-rule:evenodd;stroke-width:2.89633"/><path d="M286.962 261.106h36.029v36.877h-36.029zm-264.904 0h36.029v36.877H22.058z" style="fill:#1a1a1a;fill-opacity:1;fill-rule:evenodd"/><path d="m322.991 277.637-54.41 30.566.734-62.404z" style="fill:#f9f9f9;fill-opacity:1;fill-rule:evenodd" transform="translate(161.197 145.148) scale(.48504)"/><path d="m322.991 277.637-54.41 30.566.734-62.404z" style="fill:#f9f9f9;fill-opacity:1;fill-rule:evenodd" transform="rotate(180 91.39 206.951) scale(.48504)"/><path d="M275.518 158.952h54.68v28.4h-54.68z" style="fill:#1a1a1a;fill-opacity:1;fill-rule:evenodd"/><path d="M277.213 160.648h50.865v24.824h-50.865z" style="fill:#fff;fill-opacity:1;fill-rule:evenodd;stroke-width:1.14186"/><path d="M287.415 175.31q0 .553-.261 1.093-.254.54-.718.916-.509.407-1.189.635-.674.23-1.627.23-1.024 0-1.844-.192-.813-.19-1.659-.565v-1.577h.09q.718.598 1.658.922.941.324 1.767.324 1.17 0 1.818-.438.655-.439.655-1.17 0-.63-.311-.928-.305-.299-.935-.464-.476-.127-1.036-.21-.553-.082-1.176-.21-1.258-.267-1.869-.909-.603-.648-.603-1.684 0-1.189 1.004-1.945 1.004-.763 2.549-.763.998 0 1.83.19.833.192 1.475.471v1.488h-.089q-.54-.458-1.424-.757-.877-.305-1.799-.305-1.01 0-1.627.42-.61.42-.61 1.08 0 .591.305.928.305.337 1.074.515.407.09 1.157.216.75.127 1.271.26 1.056.28 1.59.846t.534 1.583zm7.812 2.702h-1.195v-.789q-.604.477-1.157.731-.553.255-1.22.255-1.12 0-1.742-.68-.623-.687-.623-2.01v-4.608h1.195v4.043q0 .54.05.928.051.382.217.655.171.28.445.407.273.127.794.127.464 0 1.01-.242.554-.241 1.03-.616v-5.302h1.196zm8.6-3.605q0 .89-.254 1.602-.248.712-.674 1.195-.451.502-.992.757-.54.248-1.188.248-.604 0-1.056-.147-.45-.14-.89-.381l-.076.33h-1.119v-9.89h1.195v3.534q.503-.413 1.068-.674.566-.267 1.272-.267 1.258 0 1.983.967.73.966.73 2.726zm-1.233.032q0-1.271-.42-1.926-.42-.66-1.354-.66-.52 0-1.055.228-.534.222-.991.578v4.068q.508.23.87.318.369.09.833.09.992 0 1.551-.65.566-.654.566-2.046zm13.456 3.572h-1.195v-4.042q0-.458-.044-.884-.038-.426-.172-.68-.146-.273-.42-.413-.273-.14-.788-.14-.502 0-1.004.254-.502.248-1.004.636.019.146.032.343.012.19.012.382v4.544h-1.195v-4.042q0-.47-.044-.89-.038-.426-.172-.68-.146-.274-.42-.407-.273-.14-.788-.14-.489 0-.985.242-.49.241-.979.616v5.301h-1.195v-7.1h1.195v.789q.56-.464 1.113-.725.559-.26 1.188-.26.725 0 1.227.304.509.305.757.846.724-.61 1.322-.877.597-.274 1.277-.274 1.17 0 1.723.712.56.706.56 1.977zm3.585-8.288h-1.347v-1.24h1.347zm-.076 8.288h-1.195v-7.1h1.195zm6.051-.063q-.337.089-.737.146-.394.057-.706.057-1.086 0-1.652-.585-.566-.584-.566-1.875v-3.775h-.807v-1.005h.807v-2.04h1.195v2.04h2.466v1.005h-2.466v3.235q0 .56.026.877.025.312.178.585.14.254.381.375.248.114.75.114.292 0 .61-.082.318-.09.458-.146h.064z" aria-label="Submit" style="font-size:14.112px;fill:#1a1a1a;fill-rule:evenodd;stroke-width:1.08483"/><path d="M35.605 42.811h12.292v12.716H35.605zm100.235-5.038h12.292v12.716H135.84zm61.518 56.367h12.292v12.716h-12.292zm-79.536 25.054h12.292v12.716h-12.292zm67.269 30.424h12.292v12.716h-12.292zM57.904 162.901h12.292v12.716H57.904zm20.759-62.766h12.292v12.716H78.663zM140 183.659h12.292v12.716H140zm75.853-125.245h12.292V71.13h-12.292zM241 121.181h12.292v12.716H241z" style="fill:#1a1a1a;fill-opacity:1;fill-rule:evenodd"/><circle cx="79.688" cy="62.309" r="6.782" style="fill:#1a1a1a;fill-opacity:1;fill-rule:evenodd"/><circle cx="92.988" cy="41.621" r="6.782" style="fill:#1a1a1a;fill-opacity:1;fill-rule:evenodd"/><circle cx="120.758" cy="100.149" r="6.782" style="fill:#1a1a1a;fill-opacity:1;fill-rule:evenodd"/><circle cx="164.782" cy="110.782" r="6.782" style="fill:#1a1a1a;fill-opacity:1;fill-rule:evenodd"/><circle cx="100.443" cy="162.791" r="6.782" style="fill:#1a1a1a;fill-opacity:1;fill-rule:evenodd"/><circle cx="200.1" cy="195.844" r="6.782" style="fill:#1a1a1a;fill-opacity:1;fill-rule:evenodd"/><circle cx="243.322" cy="91.118" r="6.782" style="fill:#1a1a1a;fill-opacity:1;fill-rule:evenodd"/><circle cx="176.431" cy="66.448" r="6.782" style="fill:#1a1a1a;fill-opacity:1;fill-rule:evenodd"/><circle cx="43.513" cy="137.495" r="6.782" style="fill:#1a1a1a;fill-opacity:1;fill-rule:evenodd"/><circle cx="84.116" cy="193.462" r="6.782" style="fill:#1a1a1a;fill-opacity:1;fill-rule:evenodd"/><circle cx="151.806" cy="155.177" r="6.782" style="fill:#1a1a1a;fill-opacity:1;fill-rule:evenodd"/><circle cx="209.486" cy="128.514" r="6.782" style="fill:#1a1a1a;fill-opacity:1;fill-rule:evenodd"/><circle cx="235.988" cy="173.116" r="6.782" style="fill:#1a1a1a;fill-opacity:1;fill-rule:evenodd"/><path d="m41.116 69.94 8.443 14.623H32.673z" style="fill:#1a1a1a;fill-opacity:1;fill-rule:evenodd" transform="translate(8.477)"/><path d="m41.116 69.94 8.443 14.623H32.673z" style="fill:#1a1a1a;fill-opacity:1;fill-rule:evenodd" transform="translate(36.208 63.926)"/><path d="m41.116 69.94 8.443 14.623H32.673z" style="fill:#1a1a1a;fill-opacity:1;fill-rule:evenodd" transform="translate(74.476 -8.27)"/><path d="m41.116 69.94 8.443 14.623H32.673z" style="fill:#1a1a1a;fill-opacity:1;fill-rule:evenodd" transform="translate(185.176 32.09)"/><path d="m41.116 69.94 8.443 14.623H32.673z" style="fill:#1a1a1a;fill-opacity:1;fill-rule:evenodd" transform="translate(175.187 78.6)"/><path d="m41.116 69.94 8.443 14.623H32.673z" style="fill:#1a1a1a;fill-opacity:1;fill-rule:evenodd" transform="translate(183.414 117.395)"/><path d="m41.116 69.94 8.443 14.623H32.673z" style="fill:#1a1a1a;fill-opacity:1;fill-rule:evenodd" transform="translate(85.14 116.67)"/><path d="m41.116 69.94 8.443 14.623H32.673z" style="fill:#1a1a1a;fill-opacity:1;fill-rule:evenodd" transform="translate(136.41 10.2)"/><path d="m41.116 69.94 8.443 14.623H32.673z" style="fill:#1a1a1a;fill-opacity:1;fill-rule:evenodd" transform="translate(151.916 -38.24)"/><path d="m41.116 69.94 8.443 14.623H32.673z" style="fill:#1a1a1a;fill-opacity:1;fill-rule:evenodd" transform="translate(205.204 -36.339)"/><path d="m41.116 69.94 8.443 14.623H32.673z" style="fill:#1a1a1a;fill-opacity:1;fill-rule:evenodd" transform="translate(.062 114.354)"/></svg>